<?xml version="1.0" encoding="UTF-8" standalone="no"?>
<svg width="120px" height="63px" viewBox="0 0 120 63" version="1.1" xmlns="http://www.w3.org/2000/svg" xmlns:xlink="http://www.w3.org/1999/xlink" xmlns:sketch="http://www.bohemiancoding.com/sketch/ns">
    <title>logo</title>
    <description>Created with Sketch (http://www.bohemiancoding.com/sketch)</description>
    <defs></defs>
    <g id="Page-1" stroke="none" stroke-width="1" fill="none" fill-rule="evenodd" sketch:type="MSPage">
        <path d="M53.4995015,32.8860223 C52.0812729,34.3646813 50.3356805,36.0076616 48.917336,37.5136686 C48.9445873,37.7326861 48.9718386,37.9244719 49.0264572,38.1160249 C49.5991989,40.3613614 50.3901832,42.4971892 50.5265558,44.7973383 C50.6901797,47.3986655 50.035684,49.7809753 48.2899757,51.7798299 C47.2808648,52.9298462 45.9443902,53.5871314 44.4987944,53.6143631 C42.2077116,53.6690593 40.2438767,52.1357042 39.7256376,50.082037 C39.3165199,48.4664049 39.4801438,46.8783535 39.8347589,45.3175339 C40.3802493,42.9078761 41.4438627,40.7447002 43.0531985,38.855238 C43.6531915,38.1707211 44.2260492,37.4862041 44.8532935,36.8015708 L43.8168154,33.0501109 C43.2167065,33.5156103 42.7258347,34.0085742 42.2894656,34.5287698 C40.8166184,36.2264463 39.3438872,37.9514708 37.8436727,39.6492637 C37.270931,40.3064325 36.6980733,40.9361368 36.0980803,41.566074 C36.0980803,42.1958947 36.3435741,43.0172685 36.5344494,43.592393 C37.0526884,45.3722301 37.2163124,46.9055853 37.3526849,48.7128868 C37.4071876,49.287895 37.4344389,49.8629032 37.4344389,50.4380277 C37.4889416,53.8333806 36.8616972,57.0645286 34.9524809,59.9670339 C33.1796372,62.705218 29.6066985,63.6363333 27.0428705,62.5683612 C26.142881,62.1850224 25.4063994,61.6373623 24.8881604,60.8158722 C23.6063044,58.7895531 23.3608105,56.5716811 23.9063009,54.2988801 C24.5881638,51.3963747 26.0336438,48.8772081 27.9156087,46.6044071 C29.1429621,45.1257482 30.424934,43.6745537 31.78866,42.3054034 C32.7432681,41.3469401 32.7977708,41.6482346 32.4160203,40.0326024 C32.1705264,38.9920948 31.8705299,37.6777572 31.625036,36.6645976 C31.4340448,36.9657758 31.3521749,37.0754009 31.2977882,37.2122577 C31.1614156,37.5134359 30.9977917,37.814614 30.8614191,38.088444 C29.2795666,41.5386095 27.3702343,44.7971056 25.2155242,47.9187448 C23.9609195,49.6985819 23.1971866,50.7392059 21.6698367,52.4915785 L19.0515061,55.3940839 C17.3331651,57.0370641 16.4876782,58.2145449 14.0057202,60.0490782 C12.4510031,61.1990946 11.1145284,62.1300935 9.36905203,62.2669503 C6.7234701,62.4859678 4.3505174,61.4454602 2.74129761,59.4192575 C1.15944511,57.3655903 0.477582144,54.9832806 0.177469669,52.4367659 C-0.122526843,49.9724119 0.0138457499,49.2877786 0.177469669,46.8233082 C0.25933961,45.9197738 0.477466181,44.221981 0.777462694,42.3873313 C1.07745921,40.6896549 1.84119211,38.5811752 2.38656652,36.9383113 C3.72304113,33.3239409 5.08676706,30.5856405 6.99598336,27.2723319 L8.90519967,24.0959965 C9.31420148,23.4388276 9.77805384,22.7816588 10.2416743,22.1791862 C11.0326585,21.1386785 11.9053967,20.1528671 12.6691296,19.0850114 C13.5691192,17.9623431 14.4692247,17.0586924 15.4239488,16.1003454 C16.3239383,15.196811 16.7876747,14.7313116 17.7695342,13.9371695 C18.9423849,13.0061706 20.57874,11.965663 22.0517032,11.7191811 C24.1517947,11.3631904 25.9792571,12.1025199 27.3702343,13.8550089 C28.2702239,15.0598378 28.4884664,15.7991673 28.624839,17.3051743 C28.7339603,18.5921639 28.4338478,20.2350278 28.1065999,21.4672048 C27.6156122,23.3017381 27.1792431,24.7257008 26.3337562,26.4233773 C25.5701393,27.9293843 24.6972851,29.3806952 23.6335557,30.6950329 C23.4154291,30.996211 23.142568,31.270041 22.8699387,31.516523 C22.2153271,32.0915312 21.2334676,32.0367186 20.6333586,31.4070143 C20.496986,31.2701574 20.3606135,31.0510236 20.3879807,30.804658 C20.4152321,30.4486673 20.4697347,30.1201411 20.6062233,29.7914985 C20.8243499,29.2164903 21.0699597,28.6414821 21.3425889,28.093822 C22.379067,25.9306461 23.2518052,23.7126577 23.9609195,21.4398567 C24.3427859,20.2076797 24.6427825,18.9480382 24.2881673,17.661165 C23.9063009,16.2646667 22.8153201,15.4705247 21.4243429,15.8813279 C20.3333621,16.2099705 19.1060088,17.0588087 18.2877732,17.8254863 C17.1421739,18.9481546 16.3240543,19.8244573 15.2329576,21.2483037 C15.0419664,21.4673212 14.8510911,21.686455 14.7147185,21.9328206 C12.0963879,25.7389767 9.75068655,29.7093378 7.59609235,33.7619759 C6.83247541,35.1859387 6.28686907,36.335955 5.6323734,37.8967746 C5.41424682,38.4717828 4.89600778,39.6219156 4.48677403,40.9362532 C3.66853848,43.592393 3.47766323,45.4817388 3.47766323,48.3020836 C3.47766323,50.8760627 3.6957898,53.8332642 4.43227138,55.7500745 C5.03226441,57.8310898 7.56884103,59.1454274 9.5871786,58.5430712 C10.732778,58.1870805 11.8237587,57.6942329 12.7509996,56.9549035 C14.8510911,55.2845751 16.8695446,53.5595506 18.5058998,51.3963747 C19.896993,49.5618414 21.3151056,47.7545398 22.5425749,45.8103815 C24.942779,42.1138504 27.2064944,38.3350424 29.4430745,34.5563507 C29.7158197,34.0908513 29.9613136,33.6253518 30.1794402,33.1323879 C31.2159183,31.0787208 32.5796442,29.1892586 33.6978763,27.190404 C34.0797427,26.5332351 34.5978658,25.9035308 35.2252261,25.4927275 C36.1252156,24.8903713 37.1889451,25.4105669 37.870808,25.9035308 C38.1163019,26.0952002 38.3071771,26.5058871 38.2526745,26.8070652 C38.1981718,27.1357078 38.1163019,27.3272608 37.952678,27.6012072 C37.5980628,28.2583761 37.2163124,28.8608487 36.8070786,29.4906694 C36.3707095,30.1751864 35.8524705,30.8324716 35.4433527,31.5443366 C34.4068746,33.3241737 34.2432507,35.1861714 34.8433597,37.1303298 C34.9797322,37.5684812 35.1433562,37.979168 35.3343474,38.4993637 C35.6343439,38.2255336 35.9070891,38.0338642 36.1253316,37.8148467 C37.4345549,36.5005091 38.5800383,35.0491982 39.7256376,33.5980037 C40.6256272,32.4753355 41.5257327,31.3526672 42.5075922,30.2848115 C43.6258242,29.1073307 44.4713111,27.7656449 45.2895467,26.3691466 C45.7531671,25.5476565 46.2167875,24.7261663 46.6805239,23.8773281 C46.7623939,23.7404713 46.8441479,23.57615 46.9259018,23.4666412 C47.7441374,22.2891604 49.1351146,22.1523036 50.2260954,23.5213374 C50.362468,23.6856587 50.3897193,23.9868369 50.362468,24.2332024 C50.362468,24.7808625 49.8714803,25.3832188 49.5714838,25.8213701 C49.1896173,26.3963783 48.9987421,26.752369 48.5896243,27.4916985 C47.962264,28.6965274 47.5531462,29.463205 47.0622744,30.5037126 C46.7622779,31.1882295 46.9259018,32.0097196 47.1441444,32.7490491 C47.280517,33.2145486 47.4441409,33.8169048 47.6896347,34.4467256 C48.2896278,33.8717174 48.8351181,33.2692447 49.2987386,32.8310934 C50.4169706,31.7357732 51.5353187,30.6404531 52.6808021,29.5725973 C54.3991431,27.9844296 55.7356177,26.14978 56.7993472,24.0687648 C57.2358322,23.1925784 57.6722013,22.4805971 58.1358218,21.5769463 C58.9540573,20.1529835 59.6359203,19.4411185 60.6177798,18.701789 C62.2815022,17.469612 64.1634672,17.9351114 65.3909365,18.8386458 C65.690933,19.0576633 65.9636782,19.3041453 66.1546694,19.6053234 C66.6729084,20.4268135 66.809281,21.3851605 66.7820297,22.3435075 C66.7001598,24.4793353 66.2365393,26.067503 65.3638011,28.0116614 C64.7638081,29.3534635 63.6727114,29.3534635 62.6908519,28.4771608 C62.4453581,28.2581433 62.3636041,27.9841969 62.4179908,27.7104832 C62.4998607,27.3271444 62.6361173,26.9163412 62.7998572,26.5604669 C63.1817237,25.7389767 63.4272175,24.8627904 63.5362228,23.9591396 C63.6180928,23.4114796 63.5362228,22.8912839 63.2633617,22.3984364 C63.0179838,21.932937 61.9815057,21.6591069 61.5177693,21.8782408 C61.1631542,22.0150976 60.808655,22.3163921 60.5631611,22.5627577 C59.7994282,23.3568997 59.1994352,25.0819243 58.8448201,26.0950838 C57.9719659,28.3952329 57.6992207,29.9012399 57.0173578,32.5299153 C56.6354913,33.8989491 56.52637,35.2955638 56.5809887,36.6919457 C56.6628586,38.1431402 58.0810872,39.1562998 59.4994317,38.8825861 C60.2357973,38.7457292 60.8905249,38.4444347 61.490518,37.9790517 C62.9633652,36.8563834 64.3270911,35.62409 65.4998258,34.1455474 C66.2361914,33.2144322 68.172775,30.9418639 68.172775,30.9418639 C68.172775,30.9418639 68.1455237,30.8323552 68.1182724,30.4489 C68.0364024,28.5047416 68.5547575,26.8892258 69.1273832,25.1093887 C69.4273797,24.1783899 69.8092462,23.0557216 70.2183639,22.1520708 C71.7184625,19.2495655 73.3004309,18.0172721 74.7186595,17.1410858 C75.4005225,16.7029344 76.1915067,16.5934257 76.9552396,16.5934257 C77.3371061,16.5934257 77.8007265,16.6755863 78.1280903,16.8946038 C78.6463293,17.2505945 79.1645684,17.4697284 79.81918,17.5244245 C80.5555457,17.6065852 81.182906,17.989924 81.701145,18.6196283 C82.6283859,19.7971092 83.0648709,20.9197774 82.9284983,22.4257845 C82.901247,22.6174539 82.9284983,22.8091233 82.9284983,23.1376495 C83.3376161,22.8638195 83.664864,22.6994982 83.9103578,22.4531326 C85.4104564,21.0566343 87.0741788,19.8244573 88.4106534,18.2636377 C88.8197712,17.7981382 89.2835076,17.3874513 89.747128,16.9767645 C89.9926219,16.757747 90.2653671,16.5659612 90.5653636,16.4017563 C91.6018417,15.8815607 92.7473251,16.4564525 92.8564463,17.6065852 C92.9383163,18.0447365 92.4745799,19.0578961 92.2837046,19.6329042 C92.7745764,19.1947529 93.7565518,18.3732628 94.0839156,18.072201 C95.0657751,17.1137377 96.1840072,16.3470601 97.3841092,15.6898913 C97.9295996,15.3887131 98.5297085,15.2517399 99.1569529,15.2517399 C100.08431,15.2517399 100.684303,15.7445875 100.929797,16.6482382 C101.148039,17.4697284 101.011667,18.2912185 100.766173,19.0852442 C100.575297,19.742413 100.329804,20.3996982 100.08431,21.0567506 L98.4478386,25.4105669 C98.3387173,25.711745 97.7386084,27.8202247 97.6023517,28.3678848 C97.4387278,29.2440711 97.3569738,29.4083924 97.2204853,30.2845787 C97.1386153,30.7227301 96.9749914,31.2702738 97.2749879,31.5442202 C97.5478491,31.7632377 97.9295996,31.6263809 98.2295961,31.4347115 C98.5024572,31.2430421 98.7750864,31.0513727 98.993329,30.8323552 C99.7843132,30.0656776 100.575181,29.271652 101.366282,28.4775099 C101.802767,28.0393586 102.484514,27.3274936 102.484514,27.3274936 C102.484514,27.3274936 103.330001,23.6309625 104.202855,20.6736446 C104.802848,18.6746737 105.321203,17.2508273 106.221192,15.2245082 C106.657677,14.2113487 108.266781,11.1718701 108.812272,10.2135231 C110.557864,7.09200029 112.412578,4.40851242 114.921787,1.72502454 C115.494529,1.12266827 116.121889,0.465383062 116.912873,0.191669393 C117.212986,0.0821606506 117.703857,0.0273480919 118.031105,0 C119.067583,0 119.694828,0.684516922 119.91307,1.53335514 C120.104062,2.27268463 119.940322,3.14887094 119.803949,3.88820042 C119.340213,6.2430457 118.985713,7.74905275 118.140227,9.96715757 C117.185618,12.4863241 114.730912,16.4294535 112.848947,18.4283081 C111.321597,20.0439402 111.048852,20.4546271 109.439516,21.9606342 C109.139519,22.2344642 108.839523,22.5356424 108.512159,22.8369369 C109.248525,23.2750882 109.903136,23.6036144 110.448627,24.0965783 C110.966866,24.5895422 111.512356,25.1917821 111.866855,25.9038799 C112.766845,25.410916 113.639699,24.8633723 114.348813,24.1513909 C114.867052,23.6311953 115.303422,23.0013745 115.767042,22.4537145 C116.176044,21.988215 116.585278,21.5227156 117.048898,21.1119123 C117.485267,20.7285735 117.949003,20.7833861 118.385373,21.1392604 C119.258227,21.7964293 119.094487,22.7822407 118.71262,23.6310789 C118.467127,24.178739 118.16713,24.7263991 117.785264,25.2192466 C117.076149,26.1503619 116.257914,26.889575 115.275938,27.5740919 C114.375833,28.1764482 113.612216,28.6967602 112.630356,29.1347951 C112.275741,29.3264645 112.057615,29.4086252 112.057615,29.4086252 C112.057615,29.4086252 111.839488,31.3801317 111.812121,32.064765 C111.566743,35.9529654 110.230268,39.9234428 108.484676,43.3736083 C107.639189,45.0165885 107.066447,46.1940694 105.948099,47.7000764 C105.648103,48.0834152 105.320739,48.466754 104.96624,48.7952802 C103.575147,50.1643141 101.447804,49.425101 100.820559,47.8095852 C100.520563,47.0154431 100.275069,46.0844442 100.220566,45.235606 C100.111445,43.6474383 100.084194,42.2235919 100.138696,40.6080761 C100.165948,39.5402204 100.329688,38.4722483 100.438693,37.4043926 C100.629568,35.5970911 100.929565,33.5435403 101.147807,31.62673 C100.902313,31.8457475 100.711322,32.0648813 100.411442,32.3934076 C99.8932026,32.9136032 99.6477087,33.132737 98.993213,33.6803971 C98.4204713,34.1185485 97.9294836,34.3922621 97.3294906,34.6388605 C96.1838912,35.1318244 94.71116,34.7757173 94.0837997,33.2698266 C93.7838031,32.5031491 93.6473146,31.6816589 93.7565518,30.8328207 C94.1384183,28.2588416 94.8202812,25.7670231 95.829508,23.3573652 C96.1295045,22.6728483 96.4022497,21.9883314 96.6477436,21.3036981 C96.7568648,21.0298681 96.8387348,20.756038 96.8659861,20.482208 C96.947856,19.8523872 96.6477436,19.6060217 96.0750019,19.8250391 C95.8021407,19.9345479 95.5567628,20.0715211 95.3386363,20.2358424 C93.9204077,21.1668413 91.0837186,23.5218029 91.0837186,23.5218029 C91.0837186,23.5218029 90.8108574,24.2337843 90.7018521,24.4802663 C89.5835041,26.9172722 88.8743898,28.9984038 88.0289029,31.599731 C87.7016551,32.6128905 87.3470399,33.6260501 86.9379222,34.6117451 C86.5014371,35.6522527 85.6286989,35.980779 84.6195881,35.5152795 C84.0740977,35.2687976 83.6922313,35.0223156 83.8286038,34.3926113 C84.0739817,33.3247556 84.3740942,32.3937567 84.8378306,31.2162759 C85.90156,28.6149486 86.7470469,26.2874514 87.5925338,23.8504455 C87.6742878,23.6039636 87.8925303,22.8919822 87.9744003,22.5086434 C87.4561612,22.9741428 86.8561682,23.5218029 86.5289203,23.8776772 C85.1924457,25.3563362 83.6923472,26.6158613 81.8103822,27.3826552 C81.4831344,27.5195121 81.2921432,27.7386459 81.1557706,28.0671722 C80.9102767,28.724341 80.6648988,29.3815098 80.3920377,30.0113306 C79.6010535,32.0376496 78.4009514,33.7900222 76.9553556,35.3783063 C76.055366,36.3367697 74.9642693,37.0759828 73.6824133,37.5141341 C72.2369334,38.007098 70.9549615,37.7606161 69.8093621,36.692644 C69.2366204,36.1449839 68.8275026,35.5699757 68.4728875,34.6663249 C68.2275096,34.8853424 67.9818998,35.1044763 67.8182759,35.2413331 C65.9090596,37.2128396 63.9453406,39.156998 61.8450171,40.9641832 C61.4085321,41.347522 60.9177763,41.6487001 60.4267886,41.9498782 C58.5720749,43.1273591 56.0628656,42.579699 54.4808971,41.0735756 C53.6899129,40.306898 53.4171677,38.9377478 53.2807951,37.8972401 C53.1171712,36.6650631 53.1989252,35.7614124 53.3899164,34.5018873 C53.526289,33.8173703 53.6080429,32.9958802 53.7171642,32.3112469 L53.4995015,32.8860223 L53.4995015,32.8860223 Z M34.0280573,44 C33.6108113,44.3968482 33.2830204,44.7144167 33.1042368,44.9261665 C32.5379835,45.5347645 31.9717301,46.169789 31.3758273,46.7254215 C30.3327756,47.7309801 29.4982836,48.8422449 28.6639183,49.9535098 C27.0248371,52.176152 26.6373672,54.5840049 27.3228519,57.1241031 L27.3824041,57.3622795 C27.8592024,58.843966 29.0811643,59.3203187 30.7500216,58.7911129 C31.8825284,58.4471178 32.7765727,57.7327011 33.3726022,56.8330736 C34.2666465,55.5101714 34.9222282,53.4462011 34.9520044,51.911549 C35.0712356,50.112294 34.9520044,49.8476911 34.7732209,47.5192303 C34.7134152,47.1751228 34.3259453,44.8996275 34.0280573,44 L34.0280573,44 L34.0280573,44 Z M78.1911203,27.5524229 C76.3131927,26.5087373 75.4464569,25.0879942 75.5330568,23.1455316 C75.5619234,22.4207431 75.6197795,21.8117828 75.7931021,21 C75.4753235,21.2319027 75.2152782,21.4928857 75.013089,21.6958314 L74.0884971,22.739517 C72.1238468,25.0590372 71.2282444,27.6104602 71.0259323,30.5676513 C70.9392096,31.4955087 71.0836656,32.4812802 71.2569882,33.4090143 C71.5459001,34.8008004 72.4415025,35.2646059 73.7705957,34.8585912 C74.2329531,34.7136828 74.6373315,34.4816569 75.0129662,34.1627598 C77.3242616,32.510114 79,27.929234 79,27.929234 L78.1911203,27.5524229 L78.1911203,27.5524229 Z M104.755045,34.9698357 L104.311044,38.3699787 C104.0058,40.7217564 103.89477,42.5634403 104.116712,44.9433959 C104.14444,45.1134272 104.14444,45.9351645 104.505258,45.9917613 C104.921531,46.0767769 105.115745,45.4816676 105.254503,45.2267412 C105.726351,44.3201086 106.142624,43.4700729 106.531052,42.5633199 C106.975172,41.5149545 107.335872,40.4099923 107.752145,39.3616269 C108.501391,37.5199429 109.056423,35.5932434 109.41724,33.6382454 C109.639182,32.476566 109.944544,31.3714834 110,29.8982807 C107.557814,29.1899778 106.031477,28 106.031477,28 C106.031477,28 104.977105,33.1847485 104.755045,34.9698357 L104.755045,34.9698357 L104.755045,34.9698357 Z M46.8879038,40 C46.7816784,40.0515989 46.1710796,40.7232627 46.0913823,40.8007708 C44.2063039,42.6606363 43.2503878,44.8305342 43.0115216,47.4137721 C42.9584653,48.0337273 43.0912189,48.6020835 43.3567261,49.17033 C43.6752896,49.7902851 44.6577339,50.1002078 45.1887482,49.9711008 C45.8790443,49.7644857 46.3835305,49.428544 46.7817913,48.8086986 C47.4190311,47.8529116 47.9235173,46.5872018 47.9765736,45.4246899 C48.1889116,42.5573287 46.8879038,40 46.8879038,40 L46.8879038,40 L46.8879038,40 Z M107.004778,20 C107.004778,20 108.612656,18.7641816 108.640474,18.7366359 C110.359386,17.1987493 111.468198,15.6881749 112.771261,13.7932455 C114.185123,11.4038954 115.848518,8.52035796 116.735733,5.88391419 C116.81895,5.66424944 117.317898,4.37345647 116.680334,4.04395936 C115.987252,3.74189116 115.155555,5.08765868 114.989239,5.30732342 C114.711889,5.66436616 113.741693,7.01001696 113.49216,7.36705971 C112.799079,8.43807122 111.884164,9.72886419 111.2743,10.8274213 C109.999054,13.1617969 110.082153,12.8871576 108.890124,15.2489621 C108.169343,16.7044453 107.891993,17.3636729 107.448563,18.3797099 C106.921679,19.7526729 107.004778,20 107.004778,20 L107.004778,20 Z M80.6173884,23.9836167 C81.0206956,23.3718083 81.060992,22.6143843 80.9399312,21.9732298 C80.8996348,21.7692937 80.819042,21.5362592 80.6576848,21.3614214 C80.335142,20.8952286 79.0847526,20.8952286 78.5605562,21.2740025 C77.9151276,21.7692937 77.8748312,22.3520038 78.197717,22.9930344 C78.5200883,23.5757444 79.4880598,24.1002578 80.6173884,23.9836167 L80.6173884,23.9836167 L80.6173884,23.9836167 Z M95.8917532,38.0390853 C96.4116131,37.9830039 96.7673373,37.9830039 97.0956086,38.067126 C97.6701417,38.207449 98.0258659,39.0217039 97.9985293,39.6393157 C97.9985293,40.0043224 97.6975945,40.3973698 97.3692069,40.5376928 C96.7398844,40.8464987 96.1380149,41.0992232 95.4266827,41.3237876 C92.6907005,42.0536817 90.1461904,42.5871714 87.4102081,43.2611033 C85.7412822,43.6821915 84.0723563,44.1594804 82.4033141,44.66481 C79.2295979,45.6193879 76.0831019,46.5739657 72.9367223,47.5567036 C71.2677964,48.0621525 69.6535436,48.6516044 68.0119542,49.2131348 C67.5194309,49.3816177 67.1911596,49.5501007 65.6590328,49.9992296 C63.9353174,50.56076 62.45798,51.1783719 60.6794752,51.8523038 C57.5330956,53.3123306 54.3592631,54.7160373 51.267673,56.316387 C48.5042378,57.7482538 45.823045,59.2924028 43.2237455,61.0050347 C42.7038856,61.3420007 42.1293526,61.6226466 41.5821561,61.875371 C41.1443059,62.0718947 40.706572,62.043854 40.296291,61.7350481 C40.0773659,61.5665651 39.9132302,61.1735177 40.0500293,60.976994 C40.2689544,60.668188 40.5698892,60.471545 40.8434874,60.2470999 C41.7190716,59.5452466 42.6218759,58.8994747 43.5247966,58.225662 C45.1937225,56.9622783 46.9994476,55.9795404 48.7779524,54.9127997 C50.0638175,54.1547455 51.349799,53.3966914 52.6630006,52.6948381 C53.3743328,52.3017907 54.1404543,51.936784 54.879123,51.5718966 C57.0679088,50.5049172 59.2566947,49.4100164 61.4729334,48.4273979 C64.4551773,47.0796533 67.5194309,46.068994 70.6385903,45.0863755 C72.19817,44.5809265 73.6755073,44.0195154 75.2077505,43.5141858 C77.6974711,42.6999309 80.1599714,41.9980775 82.6496921,41.4365471 C83.744085,41.1838227 84.7291316,40.8189353 85.7960717,40.5662108 L92.8549525,38.7693374 C93.456822,38.6290144 94.0588079,38.4324907 94.6606775,38.3200892 C95.1257479,38.1233268 95.5634818,38.067126 95.8917532,38.0390853 L95.8917532,38.0390853 L95.8917532,38.0390853 Z" id="Logo" fill="#000000" sketch:type="MSShapeGroup"></path>
    </g>
</svg>